<?xml version="1.0" encoding="UTF-8"?>
<svg xmlns="http://www.w3.org/2000/svg" version="1.1" width="100" height="100" viewBox="0 0 100 100"><rect x="0" y="0" width="100" height="100" fill="#ffffff"/><g transform="scale(3.448)"><g transform="translate(0,0)"><path fill-rule="evenodd" d="M8 0L8 1L9 1L9 2L8 2L8 5L9 5L9 4L11 4L11 5L10 5L10 10L9 10L9 8L8 8L8 9L7 9L7 8L6 8L6 9L7 9L7 10L6 10L6 11L3 11L3 10L5 10L5 9L4 9L4 8L0 8L0 10L1 10L1 13L0 13L0 14L1 14L1 13L2 13L2 16L1 16L1 15L0 15L0 17L1 17L1 18L0 18L0 19L1 19L1 18L3 18L3 19L2 19L2 20L1 20L1 21L2 21L2 20L3 20L3 21L5 21L5 20L4 20L4 18L3 18L3 15L5 15L5 14L6 14L6 15L7 15L7 14L6 14L6 13L12 13L12 15L15 15L15 14L16 14L16 16L17 16L17 15L18 15L18 16L19 16L19 15L20 15L20 16L21 16L21 17L20 17L20 20L18 20L18 17L17 17L17 18L16 18L16 17L15 17L15 18L14 18L14 16L13 16L13 17L11 17L11 18L8 18L8 16L9 16L9 17L10 17L10 16L9 16L9 15L8 15L8 16L5 16L5 19L7 19L7 20L6 20L6 21L7 21L7 20L8 20L8 19L9 19L9 20L10 20L10 21L8 21L8 22L9 22L9 23L10 23L10 24L9 24L9 25L8 25L8 29L9 29L9 28L12 28L12 27L11 27L11 26L9 26L9 25L10 25L10 24L11 24L11 25L12 25L12 26L13 26L13 27L15 27L15 28L13 28L13 29L15 29L15 28L16 28L16 29L17 29L17 26L18 26L18 27L20 27L20 28L18 28L18 29L22 29L22 28L23 28L23 27L24 27L24 26L26 26L26 27L25 27L25 29L26 29L26 27L27 27L27 29L28 29L28 27L29 27L29 25L28 25L28 24L29 24L29 23L28 23L28 22L29 22L29 21L27 21L27 18L28 18L28 15L29 15L29 13L27 13L27 12L25 12L25 13L26 13L26 15L27 15L27 17L26 17L26 16L24 16L24 15L23 15L23 19L24 19L24 20L22 20L22 19L21 19L21 17L22 17L22 14L23 14L23 13L24 13L24 11L23 11L23 13L22 13L22 14L21 14L21 13L20 13L20 12L21 12L21 11L19 11L19 10L25 10L25 9L27 9L27 8L24 8L24 9L22 9L22 8L21 8L21 9L20 9L20 8L19 8L19 10L16 10L16 13L15 13L15 11L14 11L14 9L12 9L12 8L13 8L13 6L14 6L14 8L15 8L15 9L18 9L18 7L19 7L19 6L20 6L20 7L21 7L21 3L20 3L20 2L21 2L21 0L18 0L18 1L20 1L20 2L18 2L18 3L17 3L17 0L16 0L16 3L14 3L14 2L15 2L15 0L14 0L14 2L13 2L13 0L12 0L12 1L11 1L11 0L10 0L10 1L9 1L9 0ZM11 2L11 4L12 4L12 3L13 3L13 2ZM16 3L16 4L17 4L17 3ZM19 3L19 4L20 4L20 3ZM13 4L13 5L12 5L12 6L11 6L11 8L12 8L12 6L13 6L13 5L14 5L14 6L15 6L15 7L16 7L16 5L15 5L15 4ZM8 6L8 7L9 7L9 6ZM17 6L17 7L18 7L18 6ZM28 8L28 10L26 10L26 11L28 11L28 12L29 12L29 11L28 11L28 10L29 10L29 8ZM1 9L1 10L2 10L2 9ZM11 9L11 10L12 10L12 11L11 11L11 12L12 12L12 11L13 11L13 10L12 10L12 9ZM7 10L7 11L6 11L6 12L5 12L5 13L3 13L3 14L5 14L5 13L6 13L6 12L7 12L7 11L8 11L8 12L9 12L9 11L8 11L8 10ZM17 11L17 12L18 12L18 11ZM13 13L13 14L15 14L15 13ZM10 14L10 15L11 15L11 14ZM18 14L18 15L19 15L19 14ZM20 14L20 15L21 15L21 14ZM6 17L6 18L7 18L7 17ZM24 17L24 19L25 19L25 20L26 20L26 18L25 18L25 17ZM11 18L11 19L10 19L10 20L11 20L11 21L10 21L10 22L11 22L11 21L12 21L12 23L11 23L11 24L13 24L13 22L14 22L14 20L17 20L17 19L14 19L14 18L13 18L13 21L12 21L12 20L11 20L11 19L12 19L12 18ZM15 21L15 25L13 25L13 26L15 26L15 27L16 27L16 26L15 26L15 25L17 25L17 24L18 24L18 26L19 26L19 25L20 25L20 27L21 27L21 28L22 28L22 27L23 27L23 25L20 25L20 23L18 23L18 22L16 22L16 21ZM19 21L19 22L20 22L20 21ZM21 21L21 24L24 24L24 21ZM22 22L22 23L23 23L23 22ZM26 22L26 24L25 24L25 25L26 25L26 26L27 26L27 27L28 27L28 26L27 26L27 25L26 25L26 24L28 24L28 23L27 23L27 22ZM0 0L0 7L7 7L7 0ZM1 1L1 6L6 6L6 1ZM2 2L2 5L5 5L5 2ZM22 0L22 7L29 7L29 0ZM23 1L23 6L28 6L28 1ZM24 2L24 5L27 5L27 2ZM0 22L0 29L7 29L7 22ZM1 23L1 28L6 28L6 23ZM2 24L2 27L5 27L5 24Z" fill="#000000"/></g></g></svg>
